<?xml version="1.0" standalone="no"?>
<!DOCTYPE svg PUBLIC "-//W3C//DTD SVG 20010904//EN"
 "http://www.w3.org/TR/2001/REC-SVG-20010904/DTD/svg10.dtd">
<svg version="1.0" xmlns="http://www.w3.org/2000/svg"
 width="370.000000pt" height="278.000000pt" viewBox="0 0 370.000000 278.000000"
 preserveAspectRatio="xMidYMid meet">

<g transform="translate(0.000000,278.000000) scale(0.100000,-0.100000)"
fill="#000000" stroke="none">
<path d="M572 1503 c-7 -3 -24 -27 -37 -54 -14 -27 -30 -49 -35 -49 -14 0 26
-77 55 -106 19 -19 35 -24 76 -24 l52 0 -20 23 c-11 12 -28 37 -37 55 -9 17
-22 32 -28 32 -7 0 0 12 14 28 14 15 33 42 43 60 9 19 19 32 21 29 5 -5 -29
-70 -48 -94 -12 -15 34 -108 61 -123 11 -5 40 -10 66 -10 l46 0 -21 30 c-11
17 -29 44 -41 61 -21 30 -21 31 -2 52 11 12 29 39 41 59 l21 37 -107 -1 c-59
0 -113 -2 -120 -5z"/>
<path d="M809 1493 c-8 -10 -27 -37 -42 -61 l-27 -42 20 -40 c34 -66 53 -80
110 -80 l51 0 -21 30 c-11 17 -29 44 -41 61 -18 26 -19 32 -6 42 8 7 27 33 42
60 l27 47 -49 0 c-35 0 -54 -5 -64 -17z"/>
<path d="M1033 1503 c-62 -12 -99 -97 -70 -159 27 -55 58 -69 161 -69 l91 0 3
63 3 62 -76 0 c-59 0 -75 -3 -75 -14 0 -11 15 -16 53 -18 45 -3 52 -6 55 -25
3 -22 0 -23 -72 -23 -69 0 -76 2 -95 26 -24 30 -26 43 -10 77 16 35 49 47 129
47 63 0 70 2 70 20 0 18 -6 20 -72 19 -40 -1 -83 -4 -95 -6z"/>
<path d="M1250 1390 c0 -113 1 -120 20 -120 19 0 20 7 20 100 l0 100 69 0 c80
0 98 -5 112 -32 8 -15 7 -24 -7 -39 -14 -15 -31 -19 -86 -19 -61 0 -68 -2 -68
-20 0 -17 7 -20 43 -20 36 0 49 -6 77 -35 24 -25 43 -35 64 -35 l30 0 -33 34
-32 33 30 31 c32 32 38 60 20 94 -18 33 -71 48 -169 48 l-90 0 0 -120z"/>
<path d="M1687 1497 c-13 -10 -49 -66 -134 -209 -2 -5 8 -8 24 -8 24 0 34 10
71 75 24 41 48 77 52 80 5 3 16 -8 25 -25 l16 -30 -30 0 c-20 0 -34 -7 -41
-20 -10 -19 -8 -20 44 -20 51 0 57 -2 70 -29 11 -20 25 -30 46 -33 l30 -5 -21
36 c-12 20 -41 70 -65 113 -47 81 -63 94 -87 75z"/>
<path d="M1887 1503 c-4 -3 -7 -57 -7 -120 0 -106 1 -113 20 -113 18 0 20 7
20 82 l0 83 84 -84 c48 -47 89 -81 95 -77 7 5 11 49 11 122 0 107 -1 114 -20
114 -18 0 -20 -7 -20 -82 l0 -83 -83 83 c-84 83 -89 87 -100 75z"/>
<path d="M2220 1493 c-95 -49 -74 -185 32 -214 52 -13 130 -3 162 22 30 24 50
79 41 118 -3 15 -19 41 -35 56 -24 23 -39 28 -97 32 -52 3 -76 0 -103 -14z
m171 -52 c34 -35 36 -59 8 -95 -19 -24 -27 -26 -90 -26 -78 0 -109 19 -109 66
0 58 32 82 113 83 41 1 53 -4 78 -28z"/>
<path d="M2480 1491 c0 -16 8 -20 43 -23 l42 -3 3 -98 c2 -87 5 -98 20 -95 14
3 17 18 20 101 l3 97 44 0 c38 0 45 3 45 20 0 19 -7 20 -110 20 -102 0 -110
-1 -110 -19z"/>
<path d="M2730 1390 l0 -121 98 3 c89 3 97 5 97 23 0 18 -8 20 -77 23 l-78 3
0 74 0 75 81 0 c71 0 80 2 77 18 -3 14 -17 17 -101 20 l-97 3 0 -121z"/>
<path d="M3034 1496 c-44 -20 -64 -52 -64 -108 0 -84 52 -117 183 -118 54 0
57 1 57 25 0 25 -1 25 -83 25 -96 0 -117 13 -117 72 0 55 27 72 121 77 70 3
79 5 79 22 0 17 -8 19 -72 19 -40 -1 -87 -7 -104 -14z"/>
<path d="M2780 1390 c0 -18 7 -20 70 -20 63 0 70 2 70 20 0 18 -7 20 -70 20
-63 0 -70 -2 -70 -20z"/>
</g>
</svg>
